<svg xmlns="http://www.w3.org/2000/svg" xmlns:xlink="http://www.w3.org/1999/xlink" width="64" zoomAndPan="magnify" viewBox="0 0 48 48" height="64" preserveAspectRatio="xMidYMid meet" version="1.0"><defs><clipPath id="3ad3e85e4d"><path d="M 1.285156 0 L 46.835938 0 L 46.835938 47.019531 L 1.285156 47.019531 Z M 1.285156 0 " clip-rule="nonzero"/></clipPath><clipPath id="2bdff05bb9"><path d="M 22.199219 27.917969 L 25.800781 27.917969 L 25.800781 31.519531 L 22.199219 31.519531 Z M 22.199219 27.917969 " clip-rule="nonzero"/></clipPath><clipPath id="051594d5fc"><path d="M 24 27.917969 C 23.007812 27.917969 22.199219 28.722656 22.199219 29.71875 C 22.199219 30.710938 23.007812 31.519531 24 31.519531 C 24.992188 31.519531 25.800781 30.710938 25.800781 29.71875 C 25.800781 28.722656 24.992188 27.917969 24 27.917969 Z M 24 27.917969 " clip-rule="nonzero"/></clipPath></defs><path fill="#fdd96b" d="M 23.996094 27.425781 C 24.425781 27.425781 24.777344 27.074219 24.777344 26.644531 L 24.777344 24.292969 L 25.5625 24.292969 C 26.855469 24.292969 27.910156 23.234375 27.910156 21.945312 C 27.910156 20.652344 26.855469 19.59375 25.5625 19.59375 L 23.996094 19.59375 C 23.566406 19.59375 23.210938 19.945312 23.210938 20.378906 L 23.210938 26.644531 C 23.210938 27.074219 23.566406 27.425781 23.996094 27.425781 Z M 24.777344 21.160156 L 25.5625 21.160156 C 25.992188 21.160156 26.34375 21.511719 26.34375 21.945312 C 26.34375 22.375 25.992188 22.726562 25.5625 22.726562 L 24.777344 22.726562 Z M 24.777344 21.160156 " fill-opacity="1" fill-rule="nonzero"/><path fill="#fdd96b" d="M 30.261719 27.425781 C 30.691406 27.425781 31.042969 27.074219 31.042969 26.644531 L 31.042969 20.378906 C 31.042969 19.945312 30.691406 19.59375 30.261719 19.59375 C 29.832031 19.59375 29.476562 19.945312 29.476562 20.378906 L 29.476562 26.644531 C 29.476562 27.074219 29.832031 27.425781 30.261719 27.425781 Z M 30.261719 27.425781 " fill-opacity="1" fill-rule="nonzero"/><path fill="#fdd96b" d="M 17.730469 27.425781 C 18.160156 27.425781 18.511719 27.074219 18.511719 26.644531 L 18.511719 24.292969 L 20.078125 24.292969 L 20.078125 26.644531 C 20.078125 27.074219 20.433594 27.425781 20.863281 27.425781 C 21.292969 27.425781 21.644531 27.074219 21.644531 26.644531 L 21.644531 21.945312 C 21.644531 20.652344 20.589844 19.59375 19.296875 19.59375 C 18.003906 19.59375 16.945312 20.652344 16.945312 21.945312 L 16.945312 26.644531 C 16.945312 27.074219 17.300781 27.425781 17.730469 27.425781 Z M 18.511719 21.945312 C 18.511719 21.511719 18.867188 21.160156 19.296875 21.160156 C 19.726562 21.160156 20.078125 21.511719 20.078125 21.945312 L 20.078125 22.726562 L 18.511719 22.726562 Z M 18.511719 21.945312 " fill-opacity="1" fill-rule="nonzero"/><path fill="#fdd96b" d="M 23.996094 35.257812 C 30.476562 35.257812 35.742188 29.992188 35.742188 23.511719 C 35.742188 17.03125 30.476562 11.761719 23.996094 11.761719 C 17.515625 11.761719 12.246094 17.03125 12.246094 23.511719 C 12.246094 29.992188 17.515625 35.257812 23.996094 35.257812 Z M 23.996094 13.328125 C 29.605469 13.328125 34.175781 17.902344 34.175781 23.511719 C 34.175781 29.121094 29.605469 33.691406 23.996094 33.691406 C 18.386719 33.691406 13.8125 29.121094 13.8125 23.511719 C 13.8125 17.902344 18.386719 13.328125 23.996094 13.328125 Z M 23.996094 13.328125 " fill-opacity="1" fill-rule="nonzero"/><g clip-path="url(#3ad3e85e4d)"><path fill="#fdd96b" d="M 3.632812 40.742188 C 4.925781 40.742188 5.980469 39.683594 5.980469 38.390625 C 5.980469 37.371094 5.328125 36.5 4.414062 36.179688 L 4.414062 34.074219 L 10.308594 29.355469 C 10.660156 30.167969 11.082031 30.960938 11.574219 31.695312 L 10.132812 33.132812 C 9.828125 33.4375 9.828125 33.9375 10.132812 34.238281 L 13.265625 37.371094 C 13.570312 37.675781 14.070312 37.675781 14.371094 37.371094 L 15.8125 35.933594 C 17.347656 36.941406 19.070312 37.667969 20.863281 38.058594 L 20.863281 40.742188 C 20.863281 41.171875 21.214844 41.523438 21.644531 41.523438 L 26.34375 41.523438 C 26.777344 41.523438 27.128906 41.171875 27.128906 40.742188 L 27.128906 38.058594 C 27.785156 37.921875 28.429688 37.734375 29.058594 37.5 L 30.269531 44.785156 C 30.328125 45.164062 30.664062 45.4375 31.042969 45.4375 L 33.53125 45.4375 C 33.855469 46.351562 34.726562 47.003906 35.742188 47.003906 C 37.035156 47.003906 38.09375 45.949219 38.09375 44.65625 C 38.09375 43.363281 37.035156 42.308594 35.742188 42.308594 C 34.726562 42.308594 33.855469 42.960938 33.53125 43.871094 L 31.710938 43.871094 L 30.546875 36.875 C 31.113281 36.597656 31.660156 36.285156 32.191406 35.933594 L 33.628906 37.371094 C 33.933594 37.675781 34.429688 37.675781 34.734375 37.371094 L 37.867188 34.238281 C 38.171875 33.9375 38.171875 33.4375 37.867188 33.132812 L 36.429688 31.695312 C 36.507812 31.578125 36.585938 31.460938 36.652344 31.34375 L 42.144531 31.34375 C 42.46875 32.253906 43.339844 32.910156 44.359375 32.910156 C 45.652344 32.910156 46.707031 31.851562 46.707031 30.558594 C 46.707031 29.265625 45.652344 28.210938 44.359375 28.210938 C 43.339844 28.210938 42.46875 28.867188 42.144531 29.777344 L 37.496094 29.777344 C 37.964844 28.777344 38.316406 27.71875 38.554688 26.644531 L 41.226562 26.644531 C 41.65625 26.644531 42.007812 26.289062 42.007812 25.859375 L 42.007812 21.160156 C 42.007812 20.730469 41.65625 20.378906 41.226562 20.378906 L 38.542969 20.378906 C 38.160156 18.585938 37.4375 16.863281 36.417969 15.324219 L 37.859375 13.886719 C 38.160156 13.582031 38.160156 13.085938 37.859375 12.78125 L 34.726562 9.648438 C 34.421875 9.34375 33.921875 9.34375 33.617188 9.648438 L 32.179688 11.085938 C 31.652344 10.746094 31.101562 10.429688 30.546875 10.148438 L 34.628906 3.148438 L 37.445312 3.148438 C 37.769531 4.058594 38.640625 4.714844 39.660156 4.714844 C 40.953125 4.714844 42.007812 3.65625 42.007812 2.363281 C 42.007812 1.070312 40.953125 0.015625 39.660156 0.015625 C 38.640625 0.015625 37.769531 0.671875 37.445312 1.582031 L 34.175781 1.582031 C 33.902344 1.582031 33.636719 1.726562 33.5 1.972656 L 29.097656 9.53125 C 28.460938 9.296875 27.804688 9.109375 27.136719 8.960938 L 27.136719 6.28125 C 27.136719 5.847656 26.785156 5.496094 26.355469 5.496094 L 21.65625 5.496094 C 21.226562 5.496094 20.871094 5.847656 20.871094 6.28125 L 20.871094 8.960938 C 19.082031 9.34375 17.359375 10.070312 15.820312 11.085938 L 14.382812 9.648438 C 14.078125 9.34375 13.578125 9.34375 13.277344 9.648438 L 12.148438 10.753906 L 8.332031 8.207031 L 8.332031 4.578125 C 9.242188 4.253906 9.898438 3.382812 9.898438 2.363281 C 9.898438 1.070312 8.839844 0.015625 7.546875 0.015625 C 6.257812 0.015625 5.199219 1.070312 5.199219 2.363281 C 5.199219 3.382812 5.855469 4.253906 6.765625 4.578125 L 6.765625 8.628906 C 6.765625 8.894531 6.894531 9.140625 7.117188 9.285156 L 11.023438 11.890625 L 10.132812 12.78125 C 9.828125 13.085938 9.828125 13.582031 10.132812 13.886719 L 11.574219 15.324219 C 10.5625 16.863281 9.839844 18.585938 9.449219 20.378906 L 6.765625 20.378906 C 6.335938 20.378906 5.980469 20.730469 5.980469 21.160156 L 5.980469 25.859375 C 5.980469 26.289062 6.335938 26.644531 6.765625 26.644531 L 9.449219 26.644531 C 9.535156 27.035156 9.632812 27.417969 9.75 27.796875 L 3.152344 33.085938 C 2.96875 33.230469 2.859375 33.457031 2.859375 33.691406 L 2.859375 36.179688 C 1.949219 36.5 1.292969 37.371094 1.292969 38.390625 C 1.285156 39.683594 2.339844 40.742188 3.632812 40.742188 Z M 35.742188 43.871094 C 36.175781 43.871094 36.527344 44.226562 36.527344 44.65625 C 36.527344 45.085938 36.175781 45.4375 35.742188 45.4375 C 35.3125 45.4375 34.960938 45.085938 34.960938 44.65625 C 34.960938 44.226562 35.3125 43.871094 35.742188 43.871094 Z M 44.359375 29.777344 C 44.789062 29.777344 45.140625 30.128906 45.140625 30.558594 C 45.140625 30.988281 44.789062 31.34375 44.359375 31.34375 C 43.925781 31.34375 43.574219 30.988281 43.574219 30.558594 C 43.574219 30.128906 43.925781 29.777344 44.359375 29.777344 Z M 39.660156 1.582031 C 40.089844 1.582031 40.441406 1.933594 40.441406 2.363281 C 40.441406 2.796875 40.089844 3.148438 39.660156 3.148438 C 39.230469 3.148438 38.875 2.796875 38.875 2.363281 C 38.875 1.933594 39.230469 1.582031 39.660156 1.582031 Z M 7.546875 3.148438 C 7.117188 3.148438 6.765625 2.796875 6.765625 2.363281 C 6.765625 1.933594 7.117188 1.582031 7.546875 1.582031 C 7.980469 1.582031 8.332031 1.933594 8.332031 2.363281 C 8.332031 2.796875 7.980469 3.148438 7.546875 3.148438 Z M 7.546875 25.078125 L 7.546875 21.945312 L 10.09375 21.945312 C 10.476562 21.945312 10.800781 21.667969 10.867188 21.289062 C 11.199219 19.28125 12.023438 17.34375 13.21875 15.6875 C 13.441406 15.375 13.414062 14.945312 13.140625 14.671875 L 11.789062 13.328125 L 13.8125 11.300781 L 15.164062 12.652344 C 15.4375 12.925781 15.871094 12.957031 16.183594 12.730469 C 17.835938 11.527344 19.777344 10.714844 21.78125 10.382812 C 22.164062 10.324219 22.4375 9.992188 22.4375 9.609375 L 22.4375 7.0625 L 25.570312 7.0625 L 25.570312 9.609375 C 25.570312 9.992188 25.847656 10.3125 26.226562 10.382812 C 28.234375 10.714844 30.171875 11.539062 31.828125 12.730469 C 32.140625 12.957031 32.570312 12.925781 32.84375 12.652344 L 34.195312 11.300781 L 36.222656 13.328125 L 34.871094 14.679688 C 34.597656 14.953125 34.570312 15.382812 34.792969 15.699219 C 35.996094 17.351562 36.808594 19.289062 37.144531 21.296875 C 37.203125 21.679688 37.535156 21.953125 37.917969 21.953125 L 40.460938 21.953125 L 40.460938 25.085938 L 37.917969 25.085938 C 37.535156 25.085938 37.210938 25.359375 37.144531 25.742188 C 36.808594 27.75 35.988281 29.6875 34.792969 31.34375 C 34.570312 31.65625 34.597656 32.085938 34.871094 32.359375 L 36.222656 33.710938 L 34.175781 35.71875 L 32.824219 34.367188 C 32.550781 34.09375 32.121094 34.0625 31.808594 34.289062 C 30.152344 35.492188 28.214844 36.304688 26.207031 36.636719 C 25.828125 36.695312 25.550781 37.03125 25.550781 37.410156 L 25.550781 39.957031 L 22.417969 39.957031 L 22.417969 37.410156 C 22.417969 37.03125 22.144531 36.707031 21.761719 36.636719 C 19.757812 36.304688 17.816406 35.492188 16.164062 34.289062 C 15.851562 34.0625 15.417969 34.09375 15.144531 34.367188 L 13.8125 35.71875 L 11.789062 33.691406 L 13.140625 32.339844 C 13.414062 32.066406 13.441406 31.636719 13.21875 31.324219 C 12.011719 29.667969 11.199219 27.730469 10.867188 25.722656 C 10.808594 25.339844 10.476562 25.066406 10.09375 25.066406 L 7.546875 25.066406 Z M 3.632812 37.609375 C 4.0625 37.609375 4.414062 37.960938 4.414062 38.390625 C 4.414062 38.820312 4.0625 39.175781 3.632812 39.175781 C 3.203125 39.175781 2.851562 38.820312 2.851562 38.390625 C 2.851562 37.960938 3.203125 37.609375 3.632812 37.609375 Z M 3.632812 37.609375 " fill-opacity="1" fill-rule="nonzero"/></g><g clip-path="url(#2bdff05bb9)"><g clip-path="url(#051594d5fc)"><path fill="#fdd96b" d="M 22.199219 27.917969 L 25.800781 27.917969 L 25.800781 31.519531 L 22.199219 31.519531 Z M 22.199219 27.917969 " fill-opacity="1" fill-rule="nonzero"/></g></g></svg>