<?xml version="1.0" encoding="utf-8"?>
<svg viewBox="1043.0392 1255.8282 150 150" width="150" height="150" xmlns="http://www.w3.org/2000/svg">
  <g id="Layer_3" transform="matrix(0.9999999999999999, 0, 0, 0.9999999999999999, 1043.0391845703125, 1255.8282470703125)">
    <path id="Layer_3-2" class="cls-1" d="M0,0H150V150H0V0Z" style="fill: none;"/>
  </g>
  <path class="cls-2" d="M 1181.499 1342.478 C 1178.689 1340.418 1172.969 1337.858 1168.139 1336.218 C 1168.639 1333.068 1168.819 1329.118 1168.049 1324.548 L 1168.029 1324.548 L 1168.029 1324.438 L 1168.049 1324.438 L 1168.049 1324.548 C 1172.909 1323.668 1177.509 1321.698 1181.499 1318.778 C 1185.329 1315.938 1184.589 1312.738 1184.009 1310.838 C 1179.269 1295.468 1169.169 1282.318 1155.559 1273.758 C 1141.949 1265.208 1125.709 1261.818 1109.809 1264.208 C 1093.909 1266.608 1079.399 1274.628 1068.909 1286.818 C 1058.419 1298.998 1052.649 1314.548 1052.649 1330.628 C 1052.649 1346.708 1058.419 1362.258 1068.909 1374.438 C 1079.399 1386.628 1093.909 1394.648 1109.809 1397.048 C 1125.709 1399.438 1141.949 1396.048 1155.559 1387.498 C 1169.169 1378.938 1179.269 1365.788 1184.009 1350.418 C 1184.589 1348.518 1185.329 1345.318 1181.499 1342.478 L 1181.499 1342.478 Z M 1177.179 1348.308 C 1172.949 1362.018 1163.939 1373.748 1151.799 1381.378 C 1139.649 1389.008 1125.169 1392.018 1110.989 1389.878 C 1096.799 1387.738 1083.859 1380.588 1074.499 1369.708 C 1065.149 1358.838 1059.999 1344.968 1059.999 1330.628 C 1059.999 1316.288 1065.149 1302.418 1074.499 1291.548 C 1083.859 1280.668 1096.799 1273.518 1110.989 1271.378 C 1125.169 1269.238 1139.649 1272.248 1151.799 1279.878 C 1163.939 1287.508 1172.949 1299.238 1177.179 1312.948 C 1177.179 1312.978 1177.199 1313.018 1177.219 1313.048 C 1175.149 1314.548 1170.359 1316.348 1166.079 1317.618 L 1166.039 1317.538 C 1165.429 1316.028 1164.719 1314.548 1163.899 1313.138 L 1157.089 1301.338 C 1154.019 1296.028 1149.609 1291.608 1144.289 1288.538 C 1138.969 1285.468 1132.939 1283.848 1126.799 1283.848 L 1113.169 1283.848 C 1107.029 1283.848 1100.999 1285.468 1095.679 1288.538 C 1090.369 1291.608 1085.949 1296.028 1082.879 1301.338 L 1076.069 1313.138 C 1072.999 1318.458 1071.379 1324.488 1071.379 1330.628 C 1071.379 1336.768 1072.999 1342.798 1076.069 1348.118 L 1082.879 1359.918 C 1085.949 1365.228 1090.369 1369.648 1095.679 1372.718 C 1100.999 1375.788 1107.029 1377.408 1113.169 1377.408 L 1126.799 1377.408 C 1132.939 1377.408 1138.969 1375.788 1144.289 1372.718 C 1149.609 1369.648 1154.019 1365.228 1157.089 1359.918 L 1163.899 1348.138 C 1164.719 1346.728 1165.429 1345.248 1166.039 1343.738 L 1166.079 1343.648 C 1166.079 1343.648 1166.079 1343.638 1166.089 1343.628 L 1166.099 1343.628 C 1170.119 1344.248 1173.929 1345.818 1177.219 1348.208 C 1177.219 1348.238 1177.199 1348.278 1177.179 1348.308 L 1177.179 1348.308 Z" style="fill: rgb(255, 207, 63);" transform="matrix(0.9999999999999999, 0, 0, 0.9999999999999999, 0, 0)"/>
  <path class="cls-3" d="M 1166.079 1317.628 C 1164.549 1317.878 1162.999 1318.018 1161.439 1318.018 C 1151.249 1318.018 1147.429 1314.628 1143.009 1310.708 C 1138.739 1306.918 1133.429 1302.218 1123.759 1302.218 L 1117.979 1302.218 C 1110.989 1302.218 1104.629 1304.758 1100.089 1309.358 C 1095.649 1313.858 1093.199 1320.018 1093.199 1326.698 L 1093.199 1334.598 C 1093.199 1341.278 1095.649 1347.438 1100.089 1351.938 C 1104.639 1356.538 1110.989 1359.078 1117.979 1359.078 L 1123.759 1359.078 C 1133.429 1359.078 1138.739 1354.368 1143.009 1350.588 C 1147.429 1346.688 1151.259 1343.278 1161.439 1343.278 C 1162.989 1343.278 1164.549 1343.398 1166.079 1343.648 C 1166.959 1341.448 1168.249 1335.728 1168.139 1336.218 C 1165.819 1336.008 1163.639 1336.108 1161.419 1336.108 C 1138.009 1336.108 1139.229 1351.918 1123.729 1351.918 L 1117.949 1351.918 C 1107.309 1351.918 1100.319 1344.318 1100.319 1334.588 L 1100.319 1326.668 C 1100.319 1316.948 1107.309 1309.348 1117.949 1309.348 L 1123.729 1309.348 C 1139.229 1309.348 1138.009 1325.148 1161.419 1325.148 C 1163.639 1325.148 1165.849 1324.948 1168.029 1324.548 L 1168.029 1324.438 C 1167.609 1322.108 1166.959 1319.818 1166.079 1317.618 L 1166.079 1317.628 Z" style="fill: rgb(255, 246, 219);" transform="matrix(0.9999999999999999, 0, 0, 0.9999999999999999, 0, 0)"/>
</svg>