<?xml version="1.0" encoding="utf-8"?>
<svg viewBox="1129.098 1305.973 64.252 44.844" width="35" height="25" xmlns="http://www.w3.org/2000/svg">
  <path fill="#f3d56a" d="M 1129.098 1311.244 L 1129.098 1309.709 C 1129.098 1307.646 1130.896 1305.973 1133.114 1305.973 L 1189.334 1305.973 C 1191.552 1305.973 1193.35 1307.646 1193.35 1309.709 L 1193.35 1311.244 L 1161.224 1329.928 L 1129.098 1311.244 Z M 1162.288 1333.717 C 1161.636 1334.095 1160.811 1334.095 1160.16 1333.717 L 1129.098 1315.65 L 1129.098 1347.08 C 1129.098 1349.143 1130.896 1350.817 1133.114 1350.817 L 1189.334 1350.817 C 1191.552 1350.817 1193.35 1349.143 1193.35 1347.08 L 1193.35 1315.65 L 1162.288 1333.717 Z" class="color000000 svgShape" data-name="Layer 2" style="" transform="matrix(1, 0, 0, 1, 0, -2.2737367544323206e-13)"/>
</svg>