<?xml version="1.0" encoding="utf-8"?>
<svg viewBox="611.036 275.984 177.186 172.064" width="177.186" height="172.064" xmlns="http://www.w3.org/2000/svg">
  <ellipse style="fill: rgb(216, 216, 216); stroke: rgb(0, 0, 0);" cx="699.629" cy="362.016" rx="88.593" ry="86.032" transform="matrix(0.9999999999999999, 0, 0, 0.9999999999999999, 0, 2.842170943040401e-14)"/>
  <path d="M 763.125 398.385 C 758.565 399.545 755.745 398.435 753.215 394.635 C 747.535 386.125 741.265 378.005 735.215 369.735 C 734.435 368.665 733.625 367.615 732.615 366.285 C 725.455 375.945 718.305 385.145 711.595 394.715 C 709.195 398.135 706.675 399.625 702.195 398.415 L 729.115 362.285 L 704.055 329.655 C 708.365 328.815 711.345 329.245 713.985 333.105 C 719.815 341.625 726.245 349.735 732.655 358.315 C 739.105 349.765 745.455 341.645 751.455 333.205 C 753.865 329.785 756.455 328.485 760.785 329.745 C 757.505 334.095 754.295 338.375 751.065 342.625 C 746.705 348.355 742.425 354.155 737.905 359.765 C 736.295 361.765 736.555 363.065 737.995 364.955 C 746.355 375.945 754.615 387.045 763.125 398.385 Z M 637.785 361.685 C 638.505 358.075 638.985 354.395 639.985 350.855 C 645.985 329.425 670.585 320.515 687.485 333.795 C 697.385 341.585 699.845 352.565 699.355 364.945 L 643.555 364.945 C 642.715 387.155 658.705 400.565 679.085 393.725 C 686.235 391.325 690.445 385.725 692.555 378.725 C 693.625 375.215 695.395 374.665 698.695 375.665 C 697.005 384.425 693.175 391.745 685.175 396.325 C 673.175 403.185 656.045 400.965 647.035 391.435 C 641.715 385.835 639.455 378.865 638.455 371.335 C 638.305 370.135 637.995 368.955 637.755 367.765 C 637.775 365.738 637.785 363.712 637.785 361.685 L 637.785 361.685 Z M 643.655 360.195 L 694.085 360.195 C 693.755 344.135 683.755 332.725 670.085 332.625 C 655.085 332.505 644.305 343.645 643.655 360.195 L 643.655 360.195 Z" transform="matrix(0.9999999999999999, 0, 0, 0.9999999999999999, 0, 2.842170943040401e-14)"/>
</svg>