<?xml version="1.0" encoding="utf-8"?>
<svg viewBox="935.923 1199.165 42 42" width="32" height="32" xmlns="http://www.w3.org/2000/svg">
  <path d="M 972.923 1199.165 L 940.923 1199.165 C 938.163 1199.165 935.923 1201.405 935.923 1204.165 L 935.923 1236.165 C 935.923 1238.925 938.163 1241.165 940.923 1241.165 L 972.923 1241.165 C 975.683 1241.165 977.923 1238.925 977.923 1236.165 L 977.923 1204.165 C 977.923 1201.405 975.683 1199.165 972.923 1199.165 Z M 948.923 1215.165 L 948.923 1234.165 L 942.923 1234.165 L 942.923 1215.165 L 948.923 1215.165 Z M 942.923 1209.635 C 942.923 1208.235 944.123 1207.165 945.923 1207.165 C 947.723 1207.165 948.853 1208.235 948.923 1209.635 C 948.923 1211.035 947.803 1212.165 945.923 1212.165 C 944.123 1212.165 942.923 1211.035 942.923 1209.635 Z M 970.923 1234.165 L 964.923 1234.165 C 964.923 1234.165 964.923 1224.905 964.923 1224.165 C 964.923 1222.165 963.923 1220.165 961.423 1220.125 L 961.343 1220.125 C 958.923 1220.125 957.923 1222.185 957.923 1224.165 C 957.923 1225.075 957.923 1234.165 957.923 1234.165 L 951.923 1234.165 L 951.923 1215.165 L 957.923 1215.165 L 957.923 1217.725 C 957.923 1217.725 959.853 1215.165 963.733 1215.165 C 967.703 1215.165 970.923 1217.895 970.923 1223.425 L 970.923 1234.165 Z" style="fill: rgb(255, 216, 97);" transform="matrix(0.9999999999999999, 0, 0, 0.9999999999999999, 1.1368683772161603e-13, 0)"/>
</svg>