<?xml version="1.0" encoding="utf-8"?>
<svg viewBox="536.487 222.714 128 128.124" width="128" height="128.124" xmlns="http://www.w3.org/2000/svg">
  <ellipse style="fill: rgb(216, 216, 216); stroke: rgb(0, 0, 0);" cx="600.998" cy="286.705" rx="63.307" ry="63.991" transform="matrix(1, 0, 0, 1, 2.842170943040401e-14, 0)"/>
  <path d="M 600.487 222.838 C 565.187 222.838 536.487 251.538 536.487 286.838 C 536.487 322.138 565.187 350.838 600.487 350.838 C 611.687 350.838 622.187 347.938 631.287 342.938 L 584.887 278.138 L 584.887 314.738 L 578.087 314.738 L 578.087 264.638 L 584.887 264.638 L 635.387 340.438 C 652.887 329.038 664.487 309.338 664.487 286.838 C 664.487 251.538 635.787 222.838 600.487 222.838 Z M 622.587 307.438 L 615.087 296.138 L 615.087 264.638 L 622.587 264.638 L 622.587 307.438 Z" style="paint-order: fill;" transform="matrix(1, 0, 0, 1, 2.842170943040401e-14, 0)"/>
</svg>